<svg width="95" height="81" viewBox="0 0 95 81" fill="none" xmlns="http://www.w3.org/2000/svg">
<path d="M69.3606 46.2901L75.4188 36.123L69.5468 25.85L81.4818 25.9559L85.398 17.4741L89.6868 26.0296L95 25.8316C94.7299 10.1804 81.6727 -2.82781 63.4466 0.533592C57.1322 1.69857 52.3219 4.85276 47.4371 8.75751C40.82 2.96025 33.0714 -0.525477 24.0375 0.0685239C6.22588 1.24271 -3.54374 18.3352 1.18741 34.6956C3.92085 44.1489 11.5019 51.9262 18.6405 58.4003C27.6511 66.569 37.6303 73.9503 47.5489 81C56.01 74.9219 64.4199 68.7056 72.3222 61.9275C76.1499 58.6444 80.2711 54.9837 83.9172 50.9776L81.2955 46.396L69.3606 46.2901Z" fill="white"/>
<path d="M69.3606 46.2901L75.4188 36.123L69.5468 25.85L81.4818 25.9559L85.398 17.4741L89.6868 26.0296L95 25.8316C94.7299 10.1804 81.6727 -2.82781 63.4466 0.533592C57.1322 1.69857 52.3219 4.85276 47.4371 8.75751C40.82 2.96025 33.0714 -0.525477 24.0375 0.0685239C6.22588 1.24271 -3.54374 18.3352 1.18741 34.6956C3.92085 44.1489 11.5019 51.9262 18.6405 58.4003C27.6511 66.569 37.6303 73.9503 47.5489 81C56.01 74.9219 64.4199 68.7056 72.3222 61.9275C76.1499 58.6444 80.2711 54.9837 83.9172 50.9776L81.2955 46.396L69.3606 46.2901Z" fill="white"/>
</svg>
